<svg id="visual" viewBox="0 0 1920 1080" width="1920" height="1080" xmlns="http://www.w3.org/2000/svg" version="1.1">
  <style>
    /* ¡EDITA ESTOS COLORES! */
    :root {
      --primary:rgb(6, 43, 38);    /* Color principal (verde oscuro) */
      --secondary:rgb(3, 62, 9);  /* Color secundario (verde militar) */
      --dark:rgb(1, 24, 33);       /* Sombras (azul petróleo) */
      --light:rgb(4, 46, 23);      /* Highlights (verde bosque) */
    }
    
    .p { fill: var(--primary); stroke: var(--primary); }
    .s { fill: var(--secondary); stroke: var(--secondary); }
    .d { fill: var(--dark); stroke: var(--dark); }
    .l { fill: var(--light); stroke: var(--light); }
  </style>
  
  <g stroke-width="1" stroke-linejoin="bevel">
    <path d="M969 551L1031 515L944 469Z" class="d"/>
    <path d="M944 469L864 544L969 551Z" class="p"/>
    <path d="M1031 515L1076 436L944 469Z" class="d"/>
    <path d="M944 469L978 354L876 461Z" class="l"/>
    <path d="M876 461L864 544L944 469Z" class="d"/>
    <path d="M864 544L959 634L969 551Z" class="d"/>
    <path d="M969 551L1064 627L1031 515Z" class="l"/>
    <path d="M1076 436L1040 379L944 469Z" class="p"/>
    <path d="M1040 379L978 354L944 469Z" class="l"/>
    <path d="M959 634L1064 627L969 551Z" class="l"/>
    <path d="M1031 515L1147 444L1076 436Z" class="s"/>
    <path d="M1163 551L1147 444L1031 515Z" class="p"/>
    <path d="M1076 436L1140 337L1040 379Z" class="p"/>
    <path d="M864 544L888 653L959 634Z" class="s"/>
    <path d="M959 634L1073 696L1064 627Z" class="l"/>
    <path d="M1064 627L1163 551L1031 515Z" class="l"/>
    <path d="M978 354L850 362L876 461Z" class="l"/>
    <path d="M876 461L790 524L864 544Z" class="l"/>
    <path d="M750 451L790 524L876 461Z" class="d"/>
    <path d="M769 620L846 695L888 653Z" class="p"/>
    <path d="M1073 696L1138 636L1064 627Z" class="p"/>
    <path d="M1064 627L1138 636L1163 551Z" class="d"/>
    <path d="M979 741L1073 696L959 634Z" class="d"/>
    <path d="M1046 253L943 287L978 354Z" class="p"/>
    <path d="M978 354L943 287L850 362Z" class="d"/>
    <path d="M1046 253L978 354L1040 379Z" class="p"/>
    <path d="M1228 436L1140 337L1147 444Z" class="l"/>
    <path d="M1147 444L1140 337L1076 436Z" class="d"/>
    <path d="M769 620L888 653L864 544Z" class="p"/>
    <path d="M888 653L979 741L959 634Z" class="l"/>
    <path d="M850 362L750 451L876 461Z" class="l"/>
    <path d="M790 524L769 620L864 544Z" class="p"/>
    <path d="M846 695L979 741L888 653Z" class="l"/>
    <path d="M671 526L769 620L790 524Z" class="d"/>
    <path d="M943 287L852 284L850 362Z" class="d"/>
    <path d="M850 362L751 381L750 451Z" class="p"/>
    <path d="M1244 527L1147 444L1163 551Z" class="d"/>
    <path d="M1244 527L1228 436L1147 444Z" class="s"/>
    <path d="M1140 337L1046 253L1040 379Z" class="p"/>
    <path d="M943 287L848 198L852 284Z" class="p"/>
    <path d="M756 293L751 381L850 362Z" class="s"/>
    <path d="M1254 635L1244 527L1163 551Z" class="l"/>
    <path d="M1266 336L1150 276L1140 337Z" class="l"/>
    <path d="M1140 337L1150 276L1046 253Z" class="d"/>
    <path d="M1170 742L1254 635L1138 636Z" class="l"/>
    <path d="M1138 636L1254 635L1163 551Z" class="d"/>
    <path d="M1170 742L1138 636L1073 696Z" class="d"/>
    <path d="M1057 831L1170 742L1073 696Z" class="p"/>
    <path d="M1173 204L1035 199L1046 253Z" class="p"/>
    <path d="M1046 253L1035 199L943 287Z" class="l"/>
    <path d="M848 198L756 293L852 284Z" class="d"/>
    <path d="M852 284L756 293L850 362Z" class="p"/>
    <path d="M664 429L671 526L750 451Z" class="p"/>
    <path d="M750 451L671 526L790 524Z" class="d"/>
    <path d="M769 620L743 729L846 695Z" class="d"/>
    <path d="M664 429L750 451L751 381Z" class="p"/>
    <path d="M844 834L983 818L979 741Z" class="p"/>
    <path d="M979 741L1057 831L1073 696Z" class="d"/>
    <path d="M655 346L664 429L751 381Z" class="d"/>
    <path d="M1228 436L1266 336L1140 337Z" class="p"/>
    <path d="M1150 276L1173 204L1046 253Z" class="s"/>
    <path d="M1320 425L1266 336L1228 436Z" class="l"/>
    <path d="M1320 425L1228 436L1244 527Z" class="d"/>
    <path d="M692 726L743 729L769 620Z" class="l"/>
    <path d="M846 695L844 834L979 741Z" class="d"/>
    <path d="M935 156L848 198L943 287Z" class="l"/>
    <path d="M983 818L1057 831L979 741Z" class="s"/>
    <path d="M570 548L662 621L671 526Z" class="p"/>
    <path d="M671 526L662 621L769 620Z" class="s"/>
    <path d="M1254 635L1328 515L1244 527Z" class="p"/>
    <path d="M1328 515L1320 425L1244 527Z" class="l"/>
    <path d="M1035 199L935 156L943 287Z" class="d"/>
    <path d="M1268 282L1173 204L1150 276Z" class="p"/>
    <path d="M1035 199L956 111L935 156Z" class="p"/>
    <path d="M1257 821L1268 715L1170 742Z" class="d"/>
    <path d="M1170 742L1268 715L1254 635Z" class="l"/>
    <path d="M1254 635L1327 644L1328 515Z" class="d"/>
    <path d="M743 729L844 834L846 695Z" class="l"/>
    <path d="M983 818L1038 881L1057 831Z" class="p"/>
    <path d="M1350 274L1268 282L1266 336Z" class="p"/>
    <path d="M1266 336L1268 282L1150 276Z" class="l"/>
    <path d="M686 293L751 381L756 293Z" class="d"/>
    <path d="M686 293L655 346L751 381Z" class="p"/>
    <path d="M664 429L585 428L671 526Z" class="s"/>
    <path d="M695 186L686 293L756 293Z" class="l"/>
    <path d="M662 621L692 726L769 620Z" class="l"/>
    <path d="M743 729L744 811L844 834Z" class="d"/>
    <path d="M1325 696L1327 644L1254 635Z" class="l"/>
    <path d="M974 910L1038 881L983 818Z" class="l"/>
    <path d="M1057 831L1174 834L1170 742Z" class="l"/>
    <path d="M1146 888L1174 834L1057 831Z" class="l"/>
    <path d="M1268 715L1325 696L1254 635Z" class="l"/>
    <path d="M692 726L744 811L743 729Z" class="d"/>
    <path d="M865 911L974 910L983 818Z" class="d"/>
    <path d="M1073 89L956 111L1035 199Z" class="p"/>
    <path d="M844 103L766 160L848 198Z" class="p"/>
    <path d="M848 198L766 160L756 293Z" class="d"/>
    <path d="M1450 374L1345 353L1320 425Z" class="l"/>
    <path d="M1320 425L1345 353L1266 336Z" class="d"/>
    <path d="M1454 458L1320 425L1328 515Z" class="l"/>
    <path d="M1343 786L1325 696L1268 715Z" class="d"/>
    <path d="M1327 644L1436 554L1328 515Z" class="p"/>
    <path d="M581 375L664 429L655 346Z" class="p"/>
    <path d="M581 375L585 428L664 429Z" class="l"/>
    <path d="M662 621L562 723L692 726Z" class="l"/>
    <path d="M844 103L848 198L935 156Z" class="l"/>
    <path d="M567 293L581 375L655 346Z" class="p"/>
    <path d="M865 911L983 818L844 834Z" class="s"/>
    <path d="M1038 881L1146 888L1057 831Z" class="d"/>
    <path d="M585 428L570 548L671 526Z" class="l"/>
    <path d="M677 909L780 876L744 811Z" class="l"/>
    <path d="M1327 192L1263 197L1268 282Z" class="l"/>
    <path d="M1268 282L1263 197L1173 204Z" class="l"/>
    <path d="M1173 204L1140 110L1035 199Z" class="l"/>
    <path d="M1066 970L1146 888L1038 881Z" class="s"/>
    <path d="M1174 834L1257 821L1170 742Z" class="p"/>
    <path d="M567 293L655 346L686 293Z" class="l"/>
    <path d="M476 438L482 559L570 548Z" class="p"/>
    <path d="M1223 889L1257 821L1174 834Z" class="l"/>
    <path d="M956 111L844 103L935 156Z" class="d"/>
    <path d="M1248 79L1140 110L1173 204Z" class="d"/>
    <path d="M956 111L874 0L844 103Z" class="p"/>
    <path d="M1140 110L1073 89L1035 199Z" class="d"/>
    <path d="M648 796L744 811L692 726Z" class="p"/>
    <path d="M744 811L780 876L844 834Z" class="s"/>
    <path d="M780 876L865 911L844 834Z" class="s"/>
    <path d="M693 113L695 186L766 160Z" class="l"/>
    <path d="M766 160L695 186L756 293Z" class="d"/>
    <path d="M1345 353L1350 274L1266 336Z" class="l"/>
    <path d="M1450 374L1350 274L1345 353Z" class="s"/>
    <path d="M482 559L557 623L570 548Z" class="d"/>
    <path d="M570 548L557 623L662 621Z" class="p"/>
    <path d="M562 723L648 796L692 726Z" class="d"/>
    <path d="M1139 1010L1223 889L1146 888Z" class="l"/>
    <path d="M1146 888L1223 889L1174 834Z" class="d"/>
    <path d="M1415 709L1327 644L1325 696Z" class="d"/>
    <path d="M844 103L750 109L766 160Z" class="s"/>
    <path d="M1343 786L1268 715L1257 821Z" class="s"/>
    <path d="M1450 652L1436 554L1327 644Z" class="l"/>
    <path d="M1345 878L1343 786L1257 821Z" class="d"/>
    <path d="M1450 189L1327 192L1350 274Z" class="l"/>
    <path d="M1350 274L1327 192L1268 282Z" class="l"/>
    <path d="M1263 197L1248 79L1173 204Z" class="l"/>
    <path d="M566 186L567 293L686 293Z" class="d"/>
    <path d="M476 438L570 548L585 428Z" class="l"/>
    <path d="M566 186L686 293L695 186Z" class="d"/>
    <path d="M1436 554L1454 458L1328 515Z" class="l"/>
    <path d="M557 623L562 723L662 621Z" class="p"/>
    <path d="M954 1005L1066 970L974 910Z" class="d"/>
    <path d="M974 910L1066 970L1038 881Z" class="d"/>
    <path d="M1343 786L1415 709L1325 696Z" class="d"/>
    <path d="M1551 531L1539 438L1454 458Z" class="d"/>
    <path d="M750 109L693 113L766 160Z" class="d"/>
    <path d="M1454 458L1450 374L1320 425Z" class="p"/>
    <path d="M1415 709L1450 652L1327 644Z" class="d"/>
    <path d="M763 974L862 982L865 911Z" class="p"/>
    <path d="M865 911L954 1005L974 910Z" class="p"/>
    <path d="M763 974L865 911L780 876Z" class="d"/>
    <path d="M677 909L744 811L648 796Z" class="d"/>
    <path d="M1344 111L1248 79L1263 197Z" class="p"/>
    <path d="M1142 0L1039 0L1073 89Z" class="p"/>
    <path d="M1039 0L979 0L1073 89Z" class="p"/>
    <path d="M1073 89L979 0L956 111Z" class="l"/>
    <path d="M844 103L752 0L750 109Z" class="p"/>
    <path d="M750 109L696 0L693 113Z" class="l"/>
    <path d="M476 438L585 428L581 375Z" class="l"/>
    <path d="M557 623L500 695L562 723Z" class="p"/>
    <path d="M862 982L954 1005L865 911Z" class="l"/>
    <path d="M1142 0L1073 89L1140 110Z" class="d"/>
    <path d="M500 695L570 799L562 723Z" class="s"/>
    <path d="M562 723L570 799L648 796Z" class="p"/>
    <path d="M563 895L677 909L648 796Z" class="d"/>
    <path d="M473 373L476 438L581 375Z" class="d"/>
    <path d="M979 0L874 0L956 111Z" class="p"/>
    <path d="M457 631L500 695L557 623Z" class="d"/>
    <path d="M677 909L763 974L780 876Z" class="p"/>
    <path d="M888 1080L965 1080L954 1005Z" class="p"/>
    <path d="M1223 889L1345 878L1257 821Z" class="d"/>
    <path d="M1343 786L1461 806L1415 709Z" class="d"/>
    <path d="M1554 717L1516 642L1450 652Z" class="p"/>
    <path d="M1256 967L1345 878L1223 889Z" class="s"/>
    <path d="M693 113L566 186L695 186Z" class="d"/>
    <path d="M567 293L473 373L581 375Z" class="d"/>
    <path d="M568 108L566 186L693 113Z" class="d"/>
    <path d="M493 252L473 373L567 293Z" class="p"/>
    <path d="M1248 79L1142 0L1140 110Z" class="d"/>
    <path d="M1052 1080L1139 1010L1066 970Z" class="d"/>
    <path d="M1066 970L1139 1010L1146 888Z" class="d"/>
    <path d="M1519 341L1456 260L1450 374Z" class="p"/>
    <path d="M1450 374L1456 260L1350 274Z" class="l"/>
    <path d="M1327 192L1344 111L1263 197Z" class="p"/>
    <path d="M1450 189L1344 111L1327 192Z" class="l"/>
    <path d="M1248 79L1263 0L1142 0Z" class="d"/>
    <path d="M1139 1010L1256 967L1223 889Z" class="d"/>
    <path d="M406 615L457 631L482 559Z" class="l"/>
    <path d="M482 559L457 631L557 623Z" class="s"/>
    <path d="M406 615L482 559L393 534Z" class="s"/>
    <path d="M566 186L493 252L567 293Z" class="d"/>
    <path d="M1554 717L1450 652L1415 709Z" class="l"/>
    <path d="M1450 652L1516 642L1436 554Z" class="d"/>
    <path d="M1539 438L1519 341L1450 374Z" class="d"/>
    <path d="M874 0L752 0L844 103Z" class="p"/>
    <path d="M566 186L498 178L493 252Z" class="s"/>
    <path d="M1539 438L1450 374L1454 458Z" class="d"/>
    <path d="M1456 260L1450 189L1350 274Z" class="l"/>
    <path d="M1551 531L1454 458L1436 554Z" class="d"/>
    <path d="M1526 201L1450 189L1456 260Z" class="d"/>
    <path d="M1431 903L1461 806L1345 878Z" class="d"/>
    <path d="M1345 878L1461 806L1343 786Z" class="p"/>
    <path d="M1516 642L1551 531L1436 554Z" class="p"/>
    <path d="M696 0L568 108L693 113Z" class="d"/>
    <path d="M570 799L563 895L648 796Z" class="p"/>
    <path d="M677 909L684 1011L763 974Z" class="d"/>
    <path d="M466 829L563 895L570 799Z" class="p"/>
    <path d="M466 829L570 799L500 695Z" class="d"/>
    <path d="M1326 0L1248 79L1344 111Z" class="p"/>
    <path d="M1326 0L1263 0L1248 79Z" class="p"/>
    <path d="M752 0L696 0L750 109Z" class="s"/>
    <path d="M888 1080L954 1005L862 982Z" class="d"/>
    <path d="M954 1005L1052 1080L1066 970Z" class="p"/>
    <path d="M1254 1080L1334 978L1256 967Z" class="d"/>
    <path d="M888 1080L862 982L780 1080Z" class="d"/>
    <path d="M965 1080L1052 1080L954 1005Z" class="l"/>
    <path d="M568 108L498 178L566 186Z" class="p"/>
    <path d="M394 436L476 438L473 373Z" class="d"/>
    <path d="M780 1080L862 982L763 974Z" class="d"/>
    <path d="M393 534L482 559L476 438Z" class="l"/>
    <path d="M457 631L371 732L500 695Z" class="d"/>
    <path d="M393 534L476 438L394 436Z" class="p"/>
    <path d="M560 965L684 1011L677 909Z" class="s"/>
    <path d="M394 436L473 373L401 338Z" class="l"/>
    <path d="M1256 967L1334 978L1345 878Z" class="p"/>
    <path d="M1254 1080L1256 967L1139 1010Z" class="d"/>
    <path d="M401 338L473 373L493 252Z" class="d"/>
    <path d="M1052 1080L1141 1080L1139 1010Z" class="p"/>
    <path d="M1334 978L1431 903L1345 878Z" class="p"/>
    <path d="M1461 806L1554 717L1415 709Z" class="d"/>
    <path d="M398 283L401 338L493 252Z" class="l"/>
    <path d="M1529 97L1424 86L1450 189Z" class="d"/>
    <path d="M1450 189L1424 86L1344 111Z" class="d"/>
    <path d="M1424 86L1326 0L1344 111Z" class="l"/>
    <path d="M402 810L466 829L500 695Z" class="s"/>
    <path d="M563 895L560 965L677 909Z" class="l"/>
    <path d="M1529 820L1554 717L1461 806Z" class="d"/>
    <path d="M1516 642L1612 550L1551 531Z" class="p"/>
    <path d="M684 1011L780 1080L763 974Z" class="p"/>
    <path d="M1559 264L1526 201L1456 260Z" class="s"/>
    <path d="M1559 264L1456 260L1519 341Z" class="l"/>
    <path d="M1559 264L1519 341L1611 279Z" class="l"/>
    <path d="M376 169L398 283L493 252Z" class="l"/>
    <path d="M282 377L279 448L394 436Z" class="l"/>
    <path d="M1607 451L1539 438L1551 531Z" class="p"/>
    <path d="M1617 384L1519 341L1539 438Z" class="p"/>
    <path d="M468 900L560 965L563 895Z" class="p"/>
    <path d="M684 1011L683 1080L780 1080Z" class="p"/>
    <path d="M1612 550L1607 451L1551 531Z" class="d"/>
    <path d="M568 108L495 102L498 178Z" class="d"/>
    <path d="M498 178L376 169L493 252Z" class="d"/>
    <path d="M565 0L495 102L568 108Z" class="p"/>
    <path d="M1641 654L1612 550L1516 642Z" class="p"/>
    <path d="M1431 903L1529 820L1461 806Z" class="s"/>
    <path d="M1554 717L1641 654L1516 642Z" class="p"/>
    <path d="M1141 1080L1254 1080L1139 1010Z" class="l"/>
    <path d="M1529 981L1553 877L1431 903Z" class="l"/>
    <path d="M1431 903L1553 877L1529 820Z" class="l"/>
    <path d="M1607 451L1617 384L1539 438Z" class="d"/>
    <path d="M1725 444L1617 384L1607 451Z" class="p"/>
    <path d="M380 879L468 900L466 829Z" class="l"/>
    <path d="M466 829L468 900L563 895Z" class="l"/>
    <path d="M577 1080L684 1011L560 965Z" class="l"/>
    <path d="M577 1080L683 1080L684 1011Z" class="l"/>
    <path d="M696 0L565 0L568 108Z" class="p"/>
    <path d="M406 615L371 732L457 631Z" class="p"/>
    <path d="M289 713L371 732L406 615Z" class="d"/>
    <path d="M264 539L406 615L393 534Z" class="p"/>
    <path d="M279 448L393 534L394 436Z" class="l"/>
    <path d="M371 732L402 810L500 695Z" class="p"/>
    <path d="M1617 384L1611 279L1519 341Z" class="d"/>
    <path d="M1559 264L1613 164L1526 201Z" class="l"/>
    <path d="M1526 201L1529 97L1450 189Z" class="p"/>
    <path d="M1644 695L1641 654L1554 717Z" class="l"/>
    <path d="M1612 550L1725 444L1607 451Z" class="d"/>
    <path d="M1710 195L1613 164L1611 279Z" class="l"/>
    <path d="M1613 164L1529 97L1526 201Z" class="d"/>
    <path d="M1424 86L1443 0L1326 0Z" class="p"/>
    <path d="M1529 97L1443 0L1424 86Z" class="l"/>
    <path d="M1458 998L1431 903L1334 978Z" class="l"/>
    <path d="M1607 826L1644 695L1554 717Z" class="d"/>
    <path d="M1254 1080L1347 1080L1334 978Z" class="d"/>
    <path d="M468 900L503 991L560 965Z" class="l"/>
    <path d="M406 1005L503 991L468 900Z" class="d"/>
    <path d="M1347 1080L1458 998L1334 978Z" class="d"/>
    <path d="M1607 826L1554 717L1529 820Z" class="s"/>
    <path d="M495 102L376 169L498 178Z" class="p"/>
    <path d="M282 377L394 436L401 338Z" class="l"/>
    <path d="M366 102L376 169L495 102Z" class="l"/>
    <path d="M1553 877L1607 826L1529 820Z" class="p"/>
    <path d="M1631 901L1607 826L1553 877Z" class="l"/>
    <path d="M282 377L401 338L309 259Z" class="p"/>
    <path d="M503 991L577 1080L560 965Z" class="l"/>
    <path d="M293 798L380 879L402 810Z" class="d"/>
    <path d="M402 810L380 879L466 829Z" class="p"/>
    <path d="M503 991L489 1080L577 1080Z" class="l"/>
    <path d="M293 798L402 810L371 732Z" class="l"/>
    <path d="M309 259L401 338L398 283Z" class="d"/>
    <path d="M376 169L309 259L398 283Z" class="p"/>
    <path d="M1718 367L1611 279L1617 384Z" class="s"/>
    <path d="M1611 279L1613 164L1559 264Z" class="d"/>
    <path d="M1529 97L1553 0L1443 0Z" class="d"/>
    <path d="M1725 444L1612 550L1744 557Z" class="l"/>
    <path d="M196 529L264 539L279 448Z" class="d"/>
    <path d="M279 448L264 539L393 534Z" class="p"/>
    <path d="M565 0L464 0L495 102Z" class="d"/>
    <path d="M376 169L306 193L309 259Z" class="p"/>
    <path d="M268 638L289 713L406 615Z" class="l"/>
    <path d="M1514 1080L1529 981L1458 998Z" class="p"/>
    <path d="M1458 998L1529 981L1431 903Z" class="l"/>
    <path d="M264 539L268 638L406 615Z" class="d"/>
    <path d="M464 0L366 102L495 102Z" class="p"/>
    <path d="M1347 1080L1449 1080L1458 998Z" class="d"/>
    <path d="M366 102L306 193L376 169Z" class="l"/>
    <path d="M309 259L214 276L282 377Z" class="d"/>
    <path d="M1704 704L1641 654L1644 695Z" class="l"/>
    <path d="M1723 625L1612 550L1641 654Z" class="s"/>
    <path d="M1725 444L1718 367L1617 384Z" class="l"/>
    <path d="M1729 797L1644 695L1607 826Z" class="l"/>
    <path d="M1729 797L1704 704L1644 695Z" class="p"/>
    <path d="M289 713L293 798L371 732Z" class="p"/>
    <path d="M406 1005L489 1080L503 991Z" class="s"/>
    <path d="M202 712L293 798L289 713Z" class="d"/>
    <path d="M1704 704L1723 625L1641 654Z" class="d"/>
    <path d="M406 1005L468 900L380 879Z" class="l"/>
    <path d="M1614 79L1529 97L1613 164Z" class="p"/>
    <path d="M1614 79L1553 0L1529 97Z" class="l"/>
    <path d="M1710 94L1614 79L1613 164Z" class="d"/>
    <path d="M1646 968L1631 901L1529 981Z" class="d"/>
    <path d="M1529 981L1631 901L1553 877Z" class="l"/>
    <path d="M1723 625L1744 557L1612 550Z" class="p"/>
    <path d="M1802 273L1718 266L1718 367Z" class="d"/>
    <path d="M1835 467L1744 557L1847 560Z" class="p"/>
    <path d="M300 982L406 1005L380 879Z" class="l"/>
    <path d="M1802 273L1718 367L1839 335Z" class="l"/>
    <path d="M1718 367L1718 266L1611 279Z" class="l"/>
    <path d="M464 0L388 0L366 102Z" class="l"/>
    <path d="M366 102L264 71L306 193Z" class="p"/>
    <path d="M1449 1080L1514 1080L1458 998Z" class="l"/>
    <path d="M264 539L196 529L268 638Z" class="d"/>
    <path d="M268 638L202 712L289 713Z" class="p"/>
    <path d="M173 471L196 529L279 448Z" class="l"/>
    <path d="M173 471L279 448L182 367Z" class="p"/>
    <path d="M1718 266L1710 195L1611 279Z" class="d"/>
    <path d="M1614 79L1656 0L1553 0Z" class="d"/>
    <path d="M184 833L282 875L293 798Z" class="p"/>
    <path d="M293 798L282 875L380 879Z" class="d"/>
    <path d="M177 192L214 276L306 193Z" class="d"/>
    <path d="M306 193L214 276L309 259Z" class="d"/>
    <path d="M1631 901L1729 797L1607 826Z" class="p"/>
    <path d="M1704 704L1814 703L1723 625Z" class="l"/>
    <path d="M1728 916L1729 797L1631 901Z" class="l"/>
    <path d="M176 643L202 712L268 638Z" class="p"/>
    <path d="M182 367L279 448L282 377Z" class="p"/>
    <path d="M196 529L176 643L268 638Z" class="p"/>
    <path d="M1651 1080L1646 968L1529 981Z" class="p"/>
    <path d="M214 276L182 367L282 377Z" class="p"/>
    <path d="M114 538L176 643L196 529Z" class="d"/>
    <path d="M406 1005L387 1080L489 1080Z" class="l"/>
    <path d="M300 982L387 1080L406 1005Z" class="l"/>
    <path d="M184 903L300 982L282 875Z" class="l"/>
    <path d="M282 875L300 982L380 879Z" class="p"/>
    <path d="M184 833L293 798L202 712Z" class="d"/>
    <path d="M1802 273L1710 195L1718 266Z" class="l"/>
    <path d="M1805 103L1710 94L1710 195Z" class="l"/>
    <path d="M1710 195L1710 94L1613 164Z" class="p"/>
    <path d="M296 0L264 71L366 102Z" class="l"/>
    <path d="M214 276L81 338L182 367Z" class="p"/>
    <path d="M1710 94L1656 0L1614 79Z" class="l"/>
    <path d="M388 0L296 0L366 102Z" class="l"/>
    <path d="M1835 467L1725 444L1744 557Z" class="p"/>
    <path d="M1839 335L1718 367L1725 444Z" class="p"/>
    <path d="M1748 967L1728 916L1646 968Z" class="d"/>
    <path d="M1646 968L1728 916L1631 901Z" class="d"/>
    <path d="M1830 642L1744 557L1723 625Z" class="d"/>
    <path d="M1814 703L1704 704L1729 797Z" class="l"/>
    <path d="M1820 791L1814 703L1729 797Z" class="l"/>
    <path d="M1814 703L1830 642L1723 625Z" class="p"/>
    <path d="M182 102L306 193L264 71Z" class="p"/>
    <path d="M182 102L177 192L306 193Z" class="d"/>
    <path d="M113 441L114 538L173 471Z" class="l"/>
    <path d="M110 824L184 833L202 712Z" class="d"/>
    <path d="M1830 642L1847 560L1744 557Z" class="l"/>
    <path d="M173 471L114 538L196 529Z" class="p"/>
    <path d="M176 643L88 715L202 712Z" class="l"/>
    <path d="M113 441L173 471L182 367Z" class="s"/>
    <path d="M81 338L113 441L182 367Z" class="l"/>
    <path d="M1835 467L1839 335L1725 444Z" class="d"/>
    <path d="M1805 103L1705 0L1710 94Z" class="s"/>
    <path d="M1920 430L1839 335L1835 467Z" class="p"/>
    <path d="M88 715L112 630L0 636Z" class="l"/>
    <path d="M114 538L112 630L176 643Z" class="d"/>
    <path d="M1832 187L1710 195L1802 273Z" class="l"/>
    <path d="M1710 94L1705 0L1656 0Z" class="p"/>
    <path d="M1514 1080L1651 1080L1529 981Z" class="d"/>
    <path d="M1920 702L1920 627L1830 642Z" class="d"/>
    <path d="M1920 627L1920 527L1847 560Z" class="d"/>
    <path d="M1806 879L1820 791L1729 797Z" class="l"/>
    <path d="M1806 879L1729 797L1728 916Z" class="p"/>
    <path d="M90 876L184 903L184 833Z" class="d"/>
    <path d="M184 833L184 903L282 875Z" class="p"/>
    <path d="M300 982L273 1080L387 1080Z" class="p"/>
    <path d="M209 0L182 102L264 71Z" class="d"/>
    <path d="M72 263L81 338L214 276Z" class="l"/>
    <path d="M1717 1080L1748 967L1646 968Z" class="d"/>
    <path d="M1748 967L1806 879L1728 916Z" class="s"/>
    <path d="M1920 286L1832 187L1802 273Z" class="p"/>
    <path d="M1832 187L1805 103L1710 195Z" class="p"/>
    <path d="M195 1010L273 1080L300 982Z" class="p"/>
    <path d="M72 263L214 276L177 192Z" class="d"/>
    <path d="M0 465L0 519L114 538Z" class="p"/>
    <path d="M0 636L112 630L114 538Z" class="l"/>
    <path d="M112 630L88 715L176 643Z" class="p"/>
    <path d="M184 903L195 1010L300 982Z" class="d"/>
    <path d="M296 0L209 0L264 71Z" class="s"/>
    <path d="M100 162L72 263L177 192Z" class="p"/>
    <path d="M88 715L110 824L202 712Z" class="p"/>
    <path d="M1651 1080L1717 1080L1646 968Z" class="p"/>
    <path d="M1748 967L1841 995L1806 879Z" class="d"/>
    <path d="M93 1009L195 1010L184 903Z" class="p"/>
    <path d="M1920 627L1847 560L1830 642Z" class="d"/>
    <path d="M1847 560L1920 527L1835 467Z" class="d"/>
    <path d="M1839 335L1920 286L1802 273Z" class="p"/>
    <path d="M1830 642L1814 703L1920 702Z" class="p"/>
    <path d="M1920 527L1920 430L1835 467Z" class="l"/>
    <path d="M1920 101L1826 0L1805 103Z" class="l"/>
    <path d="M100 162L177 192L182 102Z" class="s"/>
    <path d="M0 465L114 538L113 441Z" class="p"/>
    <path d="M80 98L100 162L182 102Z" class="l"/>
    <path d="M1920 702L1814 703L1820 791Z" class="l"/>
    <path d="M1920 702L1820 791L1920 820Z" class="s"/>
    <path d="M1920 430L1920 353L1839 335Z" class="p"/>
    <path d="M1920 820L1820 791L1806 879Z" class="s"/>
    <path d="M1920 353L1920 286L1839 335Z" class="d"/>
    <path d="M0 826L90 876L110 824Z" class="s"/>
    <path d="M110 824L90 876L184 833Z" class="d"/>
    <path d="M0 826L110 824L88 715Z" class="p"/>
    <path d="M101 1080L191 1080L195 1010Z" class="d"/>
    <path d="M195 1010L191 1080L273 1080Z" class="d"/>
    <path d="M1805 103L1826 0L1705 0Z" class="l"/>
    <path d="M1920 101L1805 103L1832 187Z" class="p"/>
    <path d="M113 441L81 338L0 366Z" class="l"/>
    <path d="M0 465L113 441L0 366Z" class="p"/>
    <path d="M0 366L81 338L0 291Z" class="l"/>
    <path d="M75 0L80 98L182 102Z" class="s"/>
    <path d="M0 187L0 291L72 263Z" class="p"/>
    <path d="M1824 1080L1841 995L1748 967Z" class="s"/>
    <path d="M1920 878L1920 820L1806 879Z" class="p"/>
    <path d="M0 519L0 636L114 538Z" class="d"/>
    <path d="M0 291L81 338L72 263Z" class="d"/>
    <path d="M1920 286L1920 179L1832 187Z" class="p"/>
    <path d="M0 636L0 704L88 715Z" class="s"/>
    <path d="M90 876L93 1009L184 903Z" class="l"/>
    <path d="M0 187L72 263L100 162Z" class="l"/>
    <path d="M1841 995L1920 878L1806 879Z" class="l"/>
    <path d="M1920 179L1920 101L1832 187Z" class="d"/>
    <path d="M1717 1080L1824 1080L1748 967Z" class="p"/>
    <path d="M1841 995L1920 974L1920 878Z" class="d"/>
    <path d="M0 984L93 1009L90 876Z" class="d"/>
    <path d="M80 98L0 187L100 162Z" class="l"/>
    <path d="M0 704L0 826L88 715Z" class="p"/>
    <path d="M209 0L75 0L182 102Z" class="l"/>
    <path d="M80 98L0 75L0 187Z" class="d"/>
    <path d="M1920 1080L1920 974L1841 995Z" class="p"/>
    <path d="M0 826L0 876L90 876Z" class="l"/>
    <path d="M0 1080L101 1080L93 1009Z" class="l"/>
    <path d="M93 1009L101 1080L195 1010Z" class="d"/>
    <path d="M1920 101L1920 0L1826 0Z" class="l"/>
    <path d="M75 0L0 75L80 98Z" class="d"/>
    <path d="M0 876L0 984L90 876Z" class="p"/>
    <path d="M1824 1080L1920 1080L1841 995Z" class="s"/>
    <path d="M75 0L0 0L0 75Z" class="d"/>
    <path d="M0 984L0 1080L93 1009Z" class="l"/>
  </g>
</svg>